<mxfile host="Electron" modified="2024-07-17T15:31:47.708Z" agent="Mozilla/5.0 (Windows NT 10.0; Win64; x64) AppleWebKit/537.36 (KHTML, like Gecko) draw.io/24.6.4 Chrome/124.0.6367.207 Electron/30.0.6 Safari/537.36" etag="nasiMPRAgYpZGj1Ypfgr" version="24.6.4" type="device">
  <diagram id="C5RBs43oDa-KdzZeNtuy" name="Page-1">
    <mxGraphModel dx="1050" dy="621" grid="1" gridSize="10" guides="1" tooltips="1" connect="1" arrows="1" fold="1" page="1" pageScale="1" pageWidth="827" pageHeight="1169" math="0" shadow="0">
      <root>
        <mxCell id="WIyWlLk6GJQsqaUBKTNV-0" />
        <mxCell id="WIyWlLk6GJQsqaUBKTNV-1" parent="WIyWlLk6GJQsqaUBKTNV-0" />
        <mxCell id="WIyWlLk6GJQsqaUBKTNV-2" value="" style="rounded=0;html=1;jettySize=auto;orthogonalLoop=1;fontSize=11;endArrow=block;endFill=0;endSize=8;strokeWidth=1;shadow=0;labelBackgroundColor=none;edgeStyle=orthogonalEdgeStyle;fontFamily=Trebuchet MS;" parent="WIyWlLk6GJQsqaUBKTNV-1" source="WIyWlLk6GJQsqaUBKTNV-3" target="WIyWlLk6GJQsqaUBKTNV-6" edge="1">
          <mxGeometry relative="1" as="geometry" />
        </mxCell>
        <mxCell id="WIyWlLk6GJQsqaUBKTNV-3" value="&lt;b&gt;Modelo de Classificação&lt;/b&gt;" style="rounded=1;whiteSpace=wrap;html=1;fontSize=12;glass=0;strokeWidth=1;shadow=0;fontFamily=Trebuchet MS;fillColor=#d5e8d4;strokeColor=#82b366;" parent="WIyWlLk6GJQsqaUBKTNV-1" vertex="1">
          <mxGeometry x="133" y="450" width="100" height="40" as="geometry" />
        </mxCell>
        <mxCell id="WIyWlLk6GJQsqaUBKTNV-5" value="NÃO" style="edgeStyle=orthogonalEdgeStyle;rounded=0;html=1;jettySize=auto;orthogonalLoop=1;fontSize=11;endArrow=block;endFill=0;endSize=8;strokeWidth=1;shadow=0;labelBackgroundColor=none;fontFamily=Trebuchet MS;entryX=0;entryY=0.5;entryDx=0;entryDy=0;" parent="WIyWlLk6GJQsqaUBKTNV-1" source="WIyWlLk6GJQsqaUBKTNV-6" target="xTJmIkaZJUEm0ZysCGnC-6" edge="1">
          <mxGeometry x="-0.1429" y="10" relative="1" as="geometry">
            <mxPoint as="offset" />
            <mxPoint x="293" y="570" as="targetPoint" />
          </mxGeometry>
        </mxCell>
        <mxCell id="X03DwOi2yjzAOW-Rf4GD-6" value="" style="edgeStyle=orthogonalEdgeStyle;rounded=0;orthogonalLoop=1;jettySize=auto;html=1;endArrow=block;endFill=0;endSize=8;fontFamily=Trebuchet MS;" parent="WIyWlLk6GJQsqaUBKTNV-1" source="WIyWlLk6GJQsqaUBKTNV-6" target="X03DwOi2yjzAOW-Rf4GD-4" edge="1">
          <mxGeometry relative="1" as="geometry" />
        </mxCell>
        <mxCell id="X03DwOi2yjzAOW-Rf4GD-7" value="SIM" style="edgeLabel;html=1;align=center;verticalAlign=middle;resizable=0;points=[];fontFamily=Trebuchet MS;" parent="X03DwOi2yjzAOW-Rf4GD-6" vertex="1" connectable="0">
          <mxGeometry x="-0.56" y="-1" relative="1" as="geometry">
            <mxPoint x="17" y="9" as="offset" />
          </mxGeometry>
        </mxCell>
        <mxCell id="WIyWlLk6GJQsqaUBKTNV-6" value="É mistura?" style="rhombus;whiteSpace=wrap;html=1;shadow=0;fontFamily=Trebuchet MS;fontSize=12;align=center;strokeWidth=1;spacing=6;spacingTop=-4;" parent="WIyWlLk6GJQsqaUBKTNV-1" vertex="1">
          <mxGeometry x="133" y="530" width="100" height="80" as="geometry" />
        </mxCell>
        <mxCell id="X03DwOi2yjzAOW-Rf4GD-1" value="" style="edgeStyle=orthogonalEdgeStyle;rounded=0;orthogonalLoop=1;jettySize=auto;html=1;endArrow=block;endFill=0;endSize=8;fontFamily=Trebuchet MS;" parent="WIyWlLk6GJQsqaUBKTNV-1" source="X03DwOi2yjzAOW-Rf4GD-0" target="WIyWlLk6GJQsqaUBKTNV-3" edge="1">
          <mxGeometry relative="1" as="geometry" />
        </mxCell>
        <mxCell id="X03DwOi2yjzAOW-Rf4GD-0" value="Início" style="strokeWidth=2;html=1;shape=mxgraph.flowchart.start_2;whiteSpace=wrap;fontFamily=Trebuchet MS;fillColor=#E0E0E0;fontColor=#333333;strokeColor=#666666;fillStyle=solid;gradientColor=none;" parent="WIyWlLk6GJQsqaUBKTNV-1" vertex="1">
          <mxGeometry x="148" y="350" width="70" height="70" as="geometry" />
        </mxCell>
        <mxCell id="X03DwOi2yjzAOW-Rf4GD-2" value="Fim" style="strokeWidth=2;html=1;shape=mxgraph.flowchart.terminator;whiteSpace=wrap;fontFamily=Trebuchet MS;fillColor=#E0E0E0;fillStyle=solid;" parent="WIyWlLk6GJQsqaUBKTNV-1" vertex="1">
          <mxGeometry x="560" y="540" width="100" height="60" as="geometry" />
        </mxCell>
        <mxCell id="X03DwOi2yjzAOW-Rf4GD-11" value="" style="edgeStyle=orthogonalEdgeStyle;rounded=0;orthogonalLoop=1;jettySize=auto;html=1;endSize=8;endArrow=block;endFill=0;fontFamily=Trebuchet MS;" parent="WIyWlLk6GJQsqaUBKTNV-1" source="X03DwOi2yjzAOW-Rf4GD-4" target="X03DwOi2yjzAOW-Rf4GD-10" edge="1">
          <mxGeometry relative="1" as="geometry" />
        </mxCell>
        <mxCell id="X03DwOi2yjzAOW-Rf4GD-4" value="&lt;b&gt;Modelo de Regressão&lt;/b&gt;" style="rounded=1;whiteSpace=wrap;html=1;fontSize=12;glass=0;strokeWidth=1;shadow=0;fontFamily=Trebuchet MS;fillColor=#d5e8d4;strokeColor=#82b366;" parent="WIyWlLk6GJQsqaUBKTNV-1" vertex="1">
          <mxGeometry x="133" y="660" width="100" height="40" as="geometry" />
        </mxCell>
        <mxCell id="X03DwOi2yjzAOW-Rf4GD-8" value="Classificação com 3 classes&lt;div&gt;&lt;b&gt;mix&lt;/b&gt;, &lt;b&gt;gas &lt;/b&gt;e &lt;b&gt;liquid&lt;/b&gt;&lt;/div&gt;" style="text;html=1;align=left;verticalAlign=middle;whiteSpace=wrap;rounded=0;fontFamily=Trebuchet MS;" parent="WIyWlLk6GJQsqaUBKTNV-1" vertex="1">
          <mxGeometry x="253" y="447.5" width="169.12" height="45" as="geometry" />
        </mxCell>
        <mxCell id="X03DwOi2yjzAOW-Rf4GD-9" value="Regressão com 25 saídas&lt;div&gt;Valores da &lt;b&gt;Razão de Equilíbrio (K&lt;sub&gt;i=1..24&lt;/sub&gt;)&lt;/b&gt; para cada componente e &lt;b&gt;fração de gás (n&lt;sub&gt;V&lt;/sub&gt;)&lt;/b&gt;&lt;/div&gt;" style="text;html=1;align=left;verticalAlign=middle;whiteSpace=wrap;rounded=0;fontFamily=Trebuchet MS;" parent="WIyWlLk6GJQsqaUBKTNV-1" vertex="1">
          <mxGeometry x="253" y="642.5" width="140" height="75" as="geometry" />
        </mxCell>
        <mxCell id="X03DwOi2yjzAOW-Rf4GD-10" value="Fim" style="strokeWidth=2;html=1;shape=mxgraph.flowchart.terminator;whiteSpace=wrap;fontFamily=Trebuchet MS;fillColor=#E0E0E0;fillStyle=solid;" parent="WIyWlLk6GJQsqaUBKTNV-1" vertex="1">
          <mxGeometry x="133" y="730" width="100" height="60" as="geometry" />
        </mxCell>
        <mxCell id="X03DwOi2yjzAOW-Rf4GD-12" value="&lt;b&gt;Pressão (P) em [bar]&lt;/b&gt;&lt;div&gt;&lt;b&gt;Temperatura (T) em [K]&lt;/b&gt;&lt;/div&gt;&lt;div style=&quot;&quot;&gt;&lt;b&gt;Composição (z&lt;sub&gt;i=1..24&lt;/sub&gt;)&lt;/b&gt;&lt;/div&gt;" style="text;html=1;align=left;verticalAlign=middle;whiteSpace=wrap;rounded=0;fontFamily=Trebuchet MS;" parent="WIyWlLk6GJQsqaUBKTNV-1" vertex="1">
          <mxGeometry x="243" y="360" width="139.12" height="50" as="geometry" />
        </mxCell>
        <mxCell id="xTJmIkaZJUEm0ZysCGnC-0" value="" style="strokeWidth=2;html=1;shape=mxgraph.flowchart.annotation_2;align=left;labelPosition=right;pointerEvents=1;" parent="WIyWlLk6GJQsqaUBKTNV-1" vertex="1">
          <mxGeometry x="218" y="360" width="25" height="50" as="geometry" />
        </mxCell>
        <mxCell id="xTJmIkaZJUEm0ZysCGnC-2" value="" style="strokeWidth=2;html=1;shape=mxgraph.flowchart.annotation_2;align=left;labelPosition=right;pointerEvents=1;" parent="WIyWlLk6GJQsqaUBKTNV-1" vertex="1">
          <mxGeometry x="233" y="445" width="20" height="50" as="geometry" />
        </mxCell>
        <mxCell id="xTJmIkaZJUEm0ZysCGnC-3" value="" style="strokeWidth=2;html=1;shape=mxgraph.flowchart.annotation_2;align=left;labelPosition=right;pointerEvents=1;" parent="WIyWlLk6GJQsqaUBKTNV-1" vertex="1">
          <mxGeometry x="233" y="640" width="20" height="80" as="geometry" />
        </mxCell>
        <mxCell id="xTJmIkaZJUEm0ZysCGnC-11" style="edgeStyle=orthogonalEdgeStyle;rounded=0;orthogonalLoop=1;jettySize=auto;html=1;exitX=1;exitY=0.5;exitDx=0;exitDy=0;entryX=0;entryY=0.5;entryDx=0;entryDy=0;endArrow=block;endFill=0;flowAnimation=0;shadow=0;endSize=8;" parent="WIyWlLk6GJQsqaUBKTNV-1" source="xTJmIkaZJUEm0ZysCGnC-6" target="xTJmIkaZJUEm0ZysCGnC-7" edge="1">
          <mxGeometry relative="1" as="geometry" />
        </mxCell>
        <mxCell id="yMhn0nYfByvZlHORkx8A-0" value="SIM" style="edgeLabel;html=1;align=center;verticalAlign=middle;resizable=0;points=[];" vertex="1" connectable="0" parent="xTJmIkaZJUEm0ZysCGnC-11">
          <mxGeometry x="-0.0444" y="1" relative="1" as="geometry">
            <mxPoint x="-5" y="-33" as="offset" />
          </mxGeometry>
        </mxCell>
        <mxCell id="xTJmIkaZJUEm0ZysCGnC-12" style="edgeStyle=orthogonalEdgeStyle;rounded=0;orthogonalLoop=1;jettySize=auto;html=1;exitX=1;exitY=0.5;exitDx=0;exitDy=0;entryX=0;entryY=0.5;entryDx=0;entryDy=0;endArrow=block;endFill=0;flowAnimation=0;shadow=0;endSize=8;" parent="WIyWlLk6GJQsqaUBKTNV-1" source="xTJmIkaZJUEm0ZysCGnC-6" target="xTJmIkaZJUEm0ZysCGnC-10" edge="1">
          <mxGeometry relative="1" as="geometry" />
        </mxCell>
        <mxCell id="yMhn0nYfByvZlHORkx8A-1" value="NÃO" style="edgeLabel;html=1;align=center;verticalAlign=middle;resizable=0;points=[];" vertex="1" connectable="0" parent="xTJmIkaZJUEm0ZysCGnC-12">
          <mxGeometry x="0.0444" y="-4" relative="1" as="geometry">
            <mxPoint x="-2" y="28" as="offset" />
          </mxGeometry>
        </mxCell>
        <mxCell id="xTJmIkaZJUEm0ZysCGnC-6" value="É Líquido?" style="rhombus;whiteSpace=wrap;html=1;shadow=0;fontFamily=Trebuchet MS;fontSize=12;align=center;strokeWidth=1;spacing=6;spacingTop=-4;" parent="WIyWlLk6GJQsqaUBKTNV-1" vertex="1">
          <mxGeometry x="273" y="530" width="100" height="80" as="geometry" />
        </mxCell>
        <mxCell id="xTJmIkaZJUEm0ZysCGnC-7" value="&lt;b&gt;n&lt;sub&gt;L&lt;/sub&gt; = 1&lt;/b&gt;&lt;div&gt;&lt;b&gt;x = z&lt;/b&gt;&lt;/div&gt;" style="rounded=1;whiteSpace=wrap;html=1;fontSize=12;glass=0;strokeWidth=1;shadow=0;fontFamily=Trebuchet MS;" parent="WIyWlLk6GJQsqaUBKTNV-1" vertex="1">
          <mxGeometry x="440" y="510" width="67" height="40" as="geometry" />
        </mxCell>
        <mxCell id="xTJmIkaZJUEm0ZysCGnC-14" style="edgeStyle=orthogonalEdgeStyle;rounded=0;orthogonalLoop=1;jettySize=auto;html=1;exitX=1;exitY=0.5;exitDx=0;exitDy=0;entryX=0;entryY=0.5;entryDx=0;entryDy=0;entryPerimeter=0;endArrow=block;endFill=0;flowAnimation=0;shadow=0;endSize=8;" parent="WIyWlLk6GJQsqaUBKTNV-1" source="xTJmIkaZJUEm0ZysCGnC-10" target="X03DwOi2yjzAOW-Rf4GD-2" edge="1">
          <mxGeometry relative="1" as="geometry">
            <mxPoint x="583" y="570" as="targetPoint" />
          </mxGeometry>
        </mxCell>
        <mxCell id="xTJmIkaZJUEm0ZysCGnC-10" value="&lt;b&gt;n&lt;sub&gt;V&lt;/sub&gt; = 1&lt;/b&gt;&lt;div&gt;&lt;b&gt;y = z&lt;/b&gt;&lt;/div&gt;" style="rounded=1;whiteSpace=wrap;html=1;fontSize=12;glass=0;strokeWidth=1;shadow=0;fontFamily=Trebuchet MS;" parent="WIyWlLk6GJQsqaUBKTNV-1" vertex="1">
          <mxGeometry x="440" y="590" width="67" height="40" as="geometry" />
        </mxCell>
        <mxCell id="xTJmIkaZJUEm0ZysCGnC-13" style="edgeStyle=orthogonalEdgeStyle;rounded=0;orthogonalLoop=1;jettySize=auto;html=1;exitX=1;exitY=0.5;exitDx=0;exitDy=0;entryX=0;entryY=0.5;entryDx=0;entryDy=0;entryPerimeter=0;endArrow=block;endFill=0;flowAnimation=0;shadow=0;endSize=8;" parent="WIyWlLk6GJQsqaUBKTNV-1" source="xTJmIkaZJUEm0ZysCGnC-7" target="X03DwOi2yjzAOW-Rf4GD-2" edge="1">
          <mxGeometry relative="1" as="geometry" />
        </mxCell>
      </root>
    </mxGraphModel>
  </diagram>
</mxfile>
